<?xml version="1.0" encoding="UTF-8" ?>
<!DOCTYPE svg PUBLIC "-//W3C//DTD SVG 1.1//EN" "http://www.w3.org/Graphics/SVG/1.1/DTD/svg11.dtd">
<svg width="192pt" height="192pt" viewBox="0 0 192 192" version="1.1" xmlns="http://www.w3.org/2000/svg">
<path fill="#a4c939" opacity="1.00" d=" M 16.00 4.27 C 16.92 3.84 17.84 3.41 18.76 2.98 C 20.83 6.49 22.81 10.05 24.88 13.56 C 33.46 9.84 43.57 9.81 52.15 13.54 C 54.24 10.05 56.22 6.49 58.29 2.99 C 59.18 3.43 60.08 3.85 60.98 4.27 C 59.06 7.85 56.97 11.33 55.00 14.87 C 64.36 19.97 71.15 29.94 71.33 40.75 C 49.42 40.51 27.51 40.85 5.60 40.57 C 6.20 29.90 12.69 19.95 22.07 14.91 C 20.08 11.34 17.95 7.85 16.00 4.27 M 20.80 23.29 C 20.80 25.17 20.80 27.05 20.81 28.93 C 22.68 28.93 24.55 28.94 26.43 28.96 C 26.49 27.10 26.52 25.23 26.56 23.37 C 24.64 23.38 22.72 23.28 20.80 23.29 M 50.43 23.32 C 50.42 25.19 50.42 27.05 50.42 28.92 C 52.35 28.86 54.27 28.91 56.20 28.85 C 56.16 26.99 56.05 25.12 56.02 23.26 C 54.16 23.27 52.29 23.30 50.43 23.32 Z" />
<path fill="#a4c939" opacity="1.00" d=" M 5.80 43.54 C 27.63 43.50 49.47 43.54 71.31 43.52 C 71.30 65.13 71.31 86.75 71.30 108.36 C 64.38 108.36 57.46 108.35 50.54 108.36 C 50.52 114.51 50.54 120.67 50.54 126.83 C 49.42 126.91 48.30 127.00 47.18 127.10 C 47.30 120.84 47.17 114.58 47.20 108.32 C 45.36 108.31 43.52 108.31 41.68 108.31 C 41.66 100.64 41.69 92.97 41.66 85.30 C 39.69 85.33 37.73 85.38 35.77 85.43 C 35.86 93.06 35.80 100.69 35.82 108.31 C 25.81 108.31 15.80 108.31 5.79 108.31 C 5.79 86.72 5.78 65.13 5.80 43.54 M 35.82 63.34 C 35.81 65.26 35.82 67.19 35.82 69.11 C 37.74 69.16 39.65 69.21 41.57 69.26 C 41.62 67.27 41.66 65.28 41.68 63.29 C 39.72 63.31 37.77 63.33 35.82 63.34 Z" />
<path fill="#a4c939" opacity="1.00" d=" M 75.09 43.57 C 89.67 43.54 104.26 43.54 118.84 43.56 C 118.79 63.33 118.83 83.09 118.82 102.86 C 110.92 102.84 103.02 102.83 95.13 102.86 C 94.80 111.16 95.87 119.55 94.50 127.77 C 94.26 121.30 94.41 114.82 94.34 108.34 C 87.94 108.37 81.53 108.35 75.13 108.36 C 75.11 86.76 75.17 65.16 75.09 43.57 M 95.15 63.34 C 95.10 70.66 95.12 77.99 95.13 85.31 C 96.44 85.30 97.75 85.28 99.06 85.26 C 99.06 77.97 99.08 70.69 99.05 63.40 C 97.75 63.38 96.45 63.36 95.15 63.34 Z" />
<path fill="#a4c939" opacity="1.00" d=" M 122.23 43.56 C 128.86 43.54 135.48 43.53 142.11 43.57 C 142.17 50.15 142.11 56.74 142.15 63.32 C 143.46 63.31 144.77 63.31 146.08 63.31 C 146.09 56.73 146.10 50.15 146.06 43.57 C 152.73 43.54 159.41 43.54 166.09 43.57 C 166.11 53.14 166.10 62.70 166.10 72.27 C 163.32 72.27 160.54 72.27 157.77 72.25 C 157.75 73.56 157.75 74.88 157.75 76.19 C 160.52 76.19 163.28 76.22 166.05 76.23 C 166.17 87.81 166.05 99.40 166.13 110.99 C 166.01 116.58 166.58 122.22 165.56 127.76 C 165.36 121.30 165.47 114.83 165.44 108.36 C 158.82 108.32 152.19 108.44 145.57 108.27 C 146.63 100.73 145.83 93.09 146.06 85.50 C 144.75 85.50 143.44 85.49 142.13 85.48 C 142.06 93.14 142.22 100.80 142.05 108.46 C 135.45 108.34 128.85 108.42 122.25 108.39 C 122.25 86.78 122.29 65.17 122.23 43.56 Z" />
<path fill="#1ac4bc" opacity="1.00" d=" M 3.38 108.32 C 3.98 108.31 5.19 108.31 5.79 108.31 C 15.80 108.31 25.81 108.31 35.82 108.31 C 37.77 108.31 39.72 108.31 41.68 108.31 C 43.52 108.31 45.36 108.31 47.20 108.32 C 47.17 114.58 47.30 120.84 47.18 127.10 L 47.09 128.16 C 43.27 128.16 39.45 128.15 35.63 128.14 C 35.58 149.43 35.70 170.71 35.57 192.00 L 15.30 192.00 C 15.33 170.71 15.31 149.42 15.31 128.14 C 11.34 128.16 7.37 128.16 3.39 128.17 C 3.38 121.55 3.40 114.93 3.38 108.32 Z" />
<path fill="#1ac4bc" opacity="1.00" d=" M 50.54 108.36 C 57.46 108.35 64.38 108.36 71.30 108.36 C 72.58 108.36 73.85 108.36 75.13 108.36 C 81.53 108.35 87.94 108.37 94.34 108.34 C 94.41 114.82 94.26 121.30 94.50 127.77 C 94.16 149.18 94.45 170.59 94.35 192.00 L 50.55 192.00 C 50.52 170.28 50.54 148.55 50.54 126.83 C 50.54 120.67 50.52 114.51 50.54 108.36 M 70.74 128.19 C 70.69 142.86 70.72 157.53 70.72 172.20 C 72.03 172.19 73.33 172.18 74.64 172.18 C 74.65 157.51 74.65 142.84 74.64 128.17 C 73.34 128.18 72.04 128.18 70.74 128.19 Z" />
<path fill="#1ac4bc" opacity="1.00" d=" M 98.06 108.42 C 106.12 108.38 114.18 108.42 122.25 108.39 C 128.85 108.42 135.45 108.34 142.05 108.46 C 141.58 136.30 141.95 164.15 141.75 192.00 L 98.08 192.00 C 98.05 164.14 98.10 136.28 98.06 108.42 M 118.23 128.21 C 118.20 142.87 118.22 157.54 118.22 172.21 C 119.53 172.20 120.84 172.19 122.15 172.19 C 122.17 157.54 122.16 142.90 122.15 128.25 C 120.84 128.24 119.53 128.22 118.23 128.21 Z" />
<path fill="#1ac4bc" opacity="1.00" d=" M 145.22 120.04 C 145.21 116.12 144.99 112.17 145.57 108.27 C 152.19 108.44 158.82 108.32 165.44 108.36 C 165.47 114.83 165.36 121.30 165.56 127.76 C 165.24 142.56 165.50 157.38 165.45 172.19 C 173.23 172.18 181.01 172.18 188.80 172.18 C 188.76 178.79 188.84 185.39 188.73 192.00 L 145.21 192.00 C 145.23 168.01 145.20 144.03 145.22 120.04 Z" />
</svg>
