<svg xmlns="http://www.w3.org/2000/svg" viewBox="105.867 90.133 317.6 270.4">
  <defs>
    <clipPath id="a" clipPathUnits="userSpaceOnUse">
      <path d="M137.679 131.782c-5.667 0-10.279-4.109-10.279-9.159 0-5.051 4.612-9.159 10.279-9.159h116.219c5.667 0 10.278 4.108 10.278 9.159 0 5.05-4.611 9.159-10.278 9.159z"/>
    </clipPath>
    <clipPath id="c" clipPathUnits="userSpaceOnUse">
      <path d="M0 338h397V0H0Z"/>
    </clipPath>
    <linearGradient id="b" x1="0" x2="1" y1="0" y2="0" gradientTransform="matrix(136.77571 0 0 -136.77571 127.4 122.623)" gradientUnits="userSpaceOnUse" spreadMethod="pad">
      <stop offset="0" stop-color="#ffae02"/>
      <stop offset=".528" stop-color="#ff972a"/>
      <stop offset="1" stop-color="#fe7e57"/>
      <stop offset="1" stop-color="#fe7e57"/>
    </linearGradient>
  </defs>
  <g clip-path="url(#a)" transform="matrix(1.33333 0 0 -1.33333 0 450.667)">
    <path fill="url(#b)" d="M137.679 131.782c-5.667 0-10.279-4.109-10.279-9.159 0-5.051 4.612-9.159 10.279-9.159h116.219c5.667 0 10.278 4.108 10.278 9.159 0 5.05-4.611 9.159-10.278 9.159z"/>
  </g>
  <g clip-path="url(#c)" transform="matrix(1.33333 0 0 -1.33333 0 450.667)">
    <path fill="#2e2e2e" d="M278.973 184.35c0-18.062-7.036-30.65-20.904-36.182-5.829-2.32-12.809-3.508-20.755-3.508h-24.709c-5.142 0-9.319 4.177-9.319 9.32a9.272 9.272 0 0 0 2.728 6.59 9.275 9.275 0 0 0 6.591 2.729h15.891c24.394 0 29.926 4.51 29.926 19.622 0 18.806-7.277 23.132-22.723 23.132h-79.827c-15.687 0-22.686-4.437-22.686-23.132 0-15.13 5.848-19.622 29.908-19.622h15.946a9.314 9.314 0 0 0 9.32-9.32 9.273 9.273 0 0 0-2.729-6.59 9.242 9.242 0 0 0-6.59-2.73h-24.766c-7.964 0-14.944 1.189-20.755 3.509-13.868 5.533-20.903 18.12-20.903 36.183 0 27.234 15.39 41.62 44.536 41.62h77.265c29.146 0 44.555-14.386 44.555-41.62M284.383 113.464h-1.313l-.172 3.96c-.037 1.01-.037 1.542.018 2.285h-.018l-1.789-5.445h-1.18l-1.962 5.426h-.019c.057-.705.057-1.485.02-2.266l-.153-3.96h-1.256l.304 7.425h1.846l1.81-5.273 1.694 5.273h1.866zm-8.51 6.302h-2.323v-6.302h-1.352v6.302h-2.437v1.123h6.322Z"/>
  </g>
</svg>
