<svg xmlns="http://www.w3.org/2000/svg" width="50px" height="47px" viewBox="0 0 50 47" version="1.1">
    <!-- Created with Method Draw - http://github.com/duopixel/Method-Draw/ -->
    <!-- following this tutorial https://www.drawinghowtodraw.com/stepbystepdrawinglessons/2016/10/draw-cute-kawaii-cartoon-baby-penguin-squares-easy-step-step-drawing-tutorial-kids/ -->
    <g id="surface1">
        <path id="colored1" style="fill-rule:nonzero;fill:rgb(100%,9.803922%,35.294118%);fill-opacity:1;stroke-width:5;stroke-linecap:butt;stroke-linejoin:miter;stroke:rgb(0%,0%,0%);stroke-opacity:1;stroke-miterlimit:4;" d="M 30.499219 173.447473 C 29.49375 173.447473 27.740625 173.473238 27.508594 174.426529 C 26.992969 176.616523 25.471875 179.94016 22.507031 184.448969 C 20.934375 186.793551 18.35625 189.370013 17.505469 191.431184 C 16.29375 194.368351 14.617969 197.511636 13.509375 199.443983 C 11.678906 202.561503 11.653125 204.674202 10.492969 207.431017 C 9.410156 210.059009 8.017969 213.305352 7.502344 216.448637 C 7.167187 218.406749 7.0125 219.334275 6.496875 223.430851 C 6.367969 224.435672 6.496875 226.445313 6.496875 228.429189 C 6.496875 230.43883 8.817187 231.77859 11.498437 233.427527 C 12.710156 234.174701 14.489062 234.432347 17.505469 234.432347 C 18.510938 234.432347 19.490625 234.432347 21.501562 234.432347 C 22.507031 234.432347 23.5125 234.432347 24.492188 234.432347 C 25.497656 234.432347 26.503125 233.427527 27.508594 232.448471 L 29.49375 232.448471 L 29.49375 231.44365 " transform="matrix(0.151515,0,0,0.151613,0,0)"/>
        <path id="colored2" style="fill-rule:nonzero;fill:rgb(100%,9.803922%,35.294118%);fill-opacity:1;stroke-width:5;stroke-linecap:butt;stroke-linejoin:miter;stroke:rgb(0%,0%,0%);stroke-opacity:1;stroke-miterlimit:4;" d="M 298.108594 175.43135 C 299.139844 175.43135 300.996094 175.457114 301.228125 176.43617 C 301.769531 178.626164 303.342187 181.949801 306.410156 186.432846 C 308.034375 188.803191 310.715625 191.379654 311.592187 193.440824 C 312.855469 196.352227 314.582812 199.495512 315.742969 201.427859 C 317.625 204.545379 317.650781 206.658078 318.8625 209.440658 C 319.971094 212.042886 321.440625 215.314993 321.95625 218.432513 C 322.291406 220.41639 322.471875 221.343916 323.013281 225.440492 C 323.116406 226.419548 323.013281 228.429189 323.013281 230.43883 C 323.013281 232.448471 320.615625 233.762467 317.805469 235.437168 C 316.567969 236.184342 314.711719 236.441988 311.592187 236.441988 C 310.560937 236.441988 309.529687 236.441988 307.441406 236.441988 C 306.410156 236.441988 305.378906 236.441988 304.347656 236.441988 C 303.290625 236.441988 302.259375 235.437168 301.228125 234.432347 L 299.139844 234.432347 L 299.139844 233.427527 " transform="matrix(0.151515,0,0,0.151613,0,0)"/>
        <path id="colored3" style="fill-rule:nonzero;fill:rgb(100%,9.803922%,35.294118%);fill-opacity:1;stroke-width:8;stroke-linecap:butt;stroke-linejoin:miter;stroke:rgb(0%,0%,0%);stroke-opacity:1;stroke-miterlimit:4;" d="M 78.99375 8.991855 L 248.995312 8.991855 C 276.607031 8.991855 299.010938 31.381316 299.010938 59.000997 L 299.010938 228.996011 C 299.010938 256.615691 276.607031 279.005153 248.995312 279.005153 L 78.99375 279.005153 C 51.382031 279.005153 29.003906 256.615691 29.003906 228.996011 L 29.003906 59.000997 C 29.003906 31.381316 51.382031 8.991855 78.99375 8.991855 Z M 78.99375 8.991855 " transform="matrix(0.151515,0,0,0.151613,0,0)"/>
        <path style="fill-rule:nonzero;fill:rgb(0%,0%,0%);fill-opacity:1;stroke-width:8;stroke-linecap:butt;stroke-linejoin:miter;stroke:rgb(0%,0%,0%);stroke-opacity:1;stroke-miterlimit:4;" d="M 259.488281 173.241356 C 259.488281 153.376828 250.103906 137.248172 238.502344 137.248172 C 226.900781 137.248172 217.490625 153.376828 217.490625 173.241356 C 217.490625 193.131649 226.900781 209.260306 238.502344 209.260306 C 250.103906 209.260306 259.488281 193.131649 259.488281 173.241356 Z M 259.488281 173.241356 " transform="matrix(0.151515,0,0,0.151613,0,0)"/>
        <path style="fill-rule:nonzero;fill:rgb(0%,0%,0%);fill-opacity:1;stroke-width:8;stroke-linecap:butt;stroke-linejoin:miter;stroke:rgb(0%,0%,0%);stroke-opacity:1;stroke-miterlimit:4;" d="M 113.489062 173.241356 C 113.489062 153.376828 104.104687 137.248172 92.503125 137.248172 C 80.901562 137.248172 71.491406 153.376828 71.491406 173.241356 C 71.491406 193.131649 80.901562 209.260306 92.503125 209.260306 C 104.104687 209.260306 113.489062 193.131649 113.489062 173.241356 Z M 113.489062 173.241356 " transform="matrix(0.151515,0,0,0.151613,0,0)"/>
        <path style="fill-rule:nonzero;fill:rgb(99.215686%,86.666667%,30.196078%);fill-opacity:1;stroke-width:5;stroke-linecap:butt;stroke-linejoin:miter;stroke:rgb(0%,0%,0%);stroke-opacity:1;stroke-miterlimit:4;" d="M 186.011719 193.440824 C 186.011719 187.927194 176.1375 183.444149 163.994531 183.444149 C 151.851562 183.444149 142.003125 187.927194 142.003125 193.440824 C 142.003125 198.954455 151.851562 203.4375 163.994531 203.4375 C 176.1375 203.4375 186.011719 198.954455 186.011719 193.440824 Z M 186.011719 193.440824 " transform="matrix(0.151515,0,0,0.151613,0,0)"/>
        <path style="fill-rule:nonzero;fill:rgb(99.215686%,86.666667%,30.196078%);fill-opacity:1;stroke-width:8;stroke-linecap:butt;stroke-linejoin:miter;stroke:rgb(0%,0%,0%);stroke-opacity:1;stroke-miterlimit:4;" d="M 67.496443 275.431579 C 67.507411 261.644316 54.280347 250.444839 38.002709 250.43104 C 21.718402 250.442128 8.499696 261.623962 8.506963 275.442784 C 8.489327 289.254935 21.723058 300.429525 38.000697 300.443323 C 54.285003 300.432235 67.50371 289.250402 67.496443 275.431579 Z M 67.496443 275.431579 " transform="matrix(0.146352,-0.0392403,0.039215,0.146447,-10.605099,2.914065)"/>
        <path style="fill-rule:nonzero;fill:rgb(99.215686%,86.666667%,30.196078%);fill-opacity:1;stroke-width:8;stroke-linecap:butt;stroke-linejoin:miter;stroke:rgb(0%,0%,0%);stroke-opacity:1;stroke-miterlimit:4;" d="M 318.553799 275.441451 C 318.561066 261.622628 305.342359 250.440795 289.058053 250.429707 C 272.755512 250.450178 259.553351 261.642983 259.564319 275.430246 C 259.557052 289.249069 272.750856 300.437575 289.060065 300.44199 C 305.337704 300.428192 318.571435 289.253601 318.553799 275.441451 Z M 318.553799 275.441451 " transform="matrix(0.146352,0.0392403,-0.039215,0.146447,12.293607,-9.919704)"/>
        <path style="fill-rule:nonzero;fill:rgb(100%,82.352941%,90.980392%);fill-opacity:1;stroke-width:5;stroke-linecap:butt;stroke-linejoin:miter;stroke:rgb(0%,0%,0%);stroke-opacity:1;stroke-miterlimit:4;" d="M 78.503906 231.44365 C 78.503906 227.578956 73.115625 224.435672 66.489844 224.435672 C 59.864062 224.435672 54.501562 227.578956 54.501562 231.44365 C 54.501562 235.308344 59.864062 238.425864 66.489844 238.425864 C 73.115625 238.425864 78.503906 235.308344 78.503906 231.44365 Z M 78.503906 231.44365 " transform="matrix(0.151515,0,0,0.151613,0,0)"/>
        <path style="fill-rule:nonzero;fill:rgb(100%,82.352941%,90.980392%);fill-opacity:1;stroke-width:5;stroke-linecap:butt;stroke-linejoin:miter;stroke:rgb(0%,0%,0%);stroke-opacity:1;stroke-miterlimit:4;" d="M 269.517187 231.44365 C 269.517187 227.578956 264.154687 224.435672 257.528906 224.435672 C 250.903125 224.435672 245.514844 227.578956 245.514844 231.44365 C 245.514844 235.308344 250.903125 238.425864 257.528906 238.425864 C 264.154687 238.425864 269.517187 235.308344 269.517187 231.44365 Z M 269.517187 231.44365 " transform="matrix(0.151515,0,0,0.151613,0,0)"/>
        <path style="fill-rule:nonzero;fill:rgb(100%,100%,100%);fill-opacity:0.301961;stroke-width:5;stroke-linecap:butt;stroke-linejoin:miter;stroke:rgb(0%,0%,0%);stroke-opacity:1;stroke-miterlimit:4;" d="M 157.539969 256.57867 C 152.967996 254.660368 149.694395 248.616321 150.429748 243.469947 C 150.906173 240.204334 160.807435 220.467114 161.66615 221.058707 C 161.944667 221.252133 164.455359 225.862461 167.250553 231.299994 C 171.725126 239.995417 172.339915 241.614845 172.325145 244.933957 C 172.319314 251.641115 167.471699 257.158406 161.637228 257.060681 C 159.941991 257.00667 158.09537 256.792672 157.539969 256.57867 Z M 162.119522 253.195756 C 162.261112 252.31865 161.92278 251.895273 161.035032 251.891675 C 159.028981 251.886536 156.258816 249.099354 155.657398 246.454149 C 154.996708 243.63661 153.241112 243.295032 152.977947 245.947956 C 152.472605 251.034656 161.28879 258.008779 162.119522 253.195756 Z M 162.119522 253.195756 " transform="matrix(0.136136,-0.0665549,0.066512,0.136224,-13.418658,14.415749)"/>
    </g>
</svg>